<svg xmlns="http://www.w3.org/2000/svg" width="28" height="34" viewBox="0 0 28 34">
    <path fill="#878AFF" fill-rule="nonzero" d="M9.766 10.709l2.124 4.77 3.793-1.69a2.422 2.422 0 0 0 1.291-1.414c.22-.617.21-1.328-.08-1.982a2.668 2.668 0 0 0-1.419-1.385 2.42 2.42 0 0 0-1.916.012l-3.793 1.689zM22.29 25.486l2.082 4.676-3.296 1.468-2.082-4.677-1.138.507 2.082 4.676-3.296 1.468-2.078-4.666-4.752 2.116-.922-3.736 2.179-.97c.787-.35 1.129-1.31.76-2.135L7.124 13.644c-.367-.826-1.309-1.213-2.096-.863l-2.836 1.263L.65 10.583 5.44 8.45 3.384 3.829 6.68 2.361l2.072 4.653 1.138-.507-2.072-4.652L11.115.387l2.13 4.783a6.022 6.022 0 0 1 3.472.354 6.542 6.542 0 0 1 3.473 3.402 6.589 6.589 0 0 1 .548 3.293 6.417 6.417 0 0 1 2.223.483 6.833 6.833 0 0 1 3.627 3.554 6.831 6.831 0 0 1 .214 5.073c-.56 1.575-1.71 2.91-3.311 3.622l-1.202.535zm-8.857-6.543l2.356 5.29 6.162-2.743a2.685 2.685 0 0 0 1.432-1.57 2.959 2.959 0 0 0-.09-2.196 2.959 2.959 0 0 0-1.572-1.537 2.686 2.686 0 0 0-2.125.013l-6.163 2.744z"/>
</svg>
