<svg xmlns="http://www.w3.org/2000/svg" width="22" height="33" viewBox="0 0 22 33">
    <path fill="#878AFF" fill-rule="nonzero" d="M8.573 9.084v5.222h4.153c.682 0 1.303-.294 1.755-.768a2.669 2.669 0 0 0 .732-1.843c0-.716-.28-1.368-.732-1.842a2.42 2.42 0 0 0-1.755-.769H8.573zm5.43 18.593v5.12h-3.608v-5.12H9.15v5.12H5.54v-5.108H.34l.677-3.788h2.385c.862 0 1.564-.737 1.564-1.641V10.69c0-.904-.702-1.641-1.564-1.641H.296V5.262h5.245V.204H9.15v5.093h1.245V.204h3.608v5.235a6.022 6.022 0 0 1 3.029 1.736 6.542 6.542 0 0 1 1.789 4.52 6.589 6.589 0 0 1-.838 3.231 6.417 6.417 0 0 1 1.834 1.346 6.833 6.833 0 0 1 1.868 4.722c0 1.84-.715 3.511-1.868 4.722-1.153 1.21-2.746 1.962-4.498 1.962h-1.316zm-5.43-9.579v5.792h6.746c.756 0 1.446-.327 1.946-.852.501-.526.812-1.25.812-2.044 0-.795-.31-1.518-.812-2.043a2.686 2.686 0 0 0-1.946-.852H8.573z"/>
</svg>
