<svg xmlns="http://www.w3.org/2000/svg" width="17" height="26" viewBox="0 0 17 26">
    <path fill="#4346B4" fill-rule="nonzero" d="M6.579 6.948v4.085h3.3a1.94 1.94 0 0 0 1.395-.6 2.07 2.07 0 0 0 .582-1.442c0-.56-.223-1.07-.582-1.442a1.938 1.938 0 0 0-1.395-.6h-3.3zm4.316 14.547V25.5H8.027v-4.005h-.99V25.5H4.169v-3.996H.034l.538-2.964h1.896c.684 0 1.243-.576 1.243-1.284v-9.05c0-.708-.559-1.285-1.243-1.285H0V3.957h4.169V0h2.868v3.985h.99V0h2.868v4.096A4.805 4.805 0 0 1 13.3 5.454a5.075 5.075 0 0 1 1.422 3.537c0 .92-.242 1.785-.666 2.528.545.26 1.038.62 1.458 1.053A5.301 5.301 0 0 1 17 16.266a5.3 5.3 0 0 1-1.485 3.694 4.965 4.965 0 0 1-3.575 1.535h-1.045zM6.579 14v4.531h5.361a2.15 2.15 0 0 0 1.547-.666c.398-.411.645-.977.645-1.599s-.247-1.188-.645-1.599a2.15 2.15 0 0 0-1.547-.666H6.579z"/>
</svg>
