<svg xmlns="http://www.w3.org/2000/svg" width="18" height="18" viewBox="0 0 18 18">
    <g fill="none" fill-rule="evenodd">
        <circle cx="9" cy="9" r="9" fill="#A74753"/>
        <path fill="#D3D4EA" d="M13.43 12.57c.062.063.093.14.093.235a.318.318 0 0 1-.093.234l-.89.867a.291.291 0 0 1-.212.094.318.318 0 0 1-.234-.094l-3.07-3.07-3.07 3.07a.291.291 0 0 1-.212.094.318.318 0 0 1-.234-.094l-.89-.867a.318.318 0 0 1-.095-.234c0-.094.032-.172.094-.235L7.711 9.5 4.617 6.453c-.156-.156-.156-.312 0-.469l.867-.89A.456.456 0 0 1 5.72 5c.094 0 .172.031.234.094l3.07 3.047 3.07-3.047A.456.456 0 0 1 12.329 5c.094 0 .172.031.235.094l.867.89c.156.157.156.305 0 .446l-3.094 3.047 3.094 3.093z"/>
    </g>
</svg>
