<?xml version="1.0" encoding="UTF-8"?>
<svg width="52px" height="28px" viewBox="0 0 52 28" version="1.1" xmlns="http://www.w3.org/2000/svg" xmlns:xlink="http://www.w3.org/1999/xlink">
    <!-- Generator: Sketch 48.2 (47327) - http://www.bohemiancoding.com/sketch -->
    <title>check</title>
    <desc>Created with Sketch.</desc>
    <defs></defs>
    <g id="Desktop-Night" stroke="none" stroke-width="1" fill="none" fill-rule="evenodd">
        <g id="check">
            <g id="Group-6" transform="translate(4.000000, 4.000000)">
                <rect id="Rectangle" fill="#4346B4" x="0" y="0" width="20" height="20" rx="3"></rect>
                <path d="M14.1445312,5.01893051 C14.4361994,4.96424274 14.7005196,5.02804418 14.9375,5.21033676 C15.1744804,5.39262934 15.3203122,5.63416338 15.375,5.93494614 C15.4296878,6.23572889 15.3658863,6.5137209 15.1835937,6.76893051 L9.5234375,15.026743 C9.34114492,15.2637234 9.10872537,15.4095552 8.82617187,15.464243 C8.54361838,15.5189308 8.28385535,15.4551293 8.046875,15.2728368 C7.90104094,15.1634612 7.51823227,14.7760953 6.8984375,14.1107274 C6.27864273,13.4453595 5.69531523,12.8027878 5.1484375,12.182993 L4.30078125,11.2533055 C4.10025941,11.0345544 4,10.7702341 4,10.4603368 C4,10.1504394 4.10937391,9.88611911 4.328125,9.66736801 C4.54687609,9.44861692 4.80208187,9.34380026 5.09375,9.35291489 C5.38541813,9.36202952 5.63150941,9.48507516 5.83203125,9.72205551 L8.5390625,12.6478368 L13.4609375,5.45643051 C13.6432301,5.21945016 13.8710924,5.07361829 14.1445312,5.01893051 Z" id="Ñheck" fill="#FFFFFF"></path>
            </g>
            <g id="Group-6" transform="translate(28.000000, 4.000000)" fill="#4346B4">
                <rect id="Rectangle" x="0" y="0" width="20" height="20" rx="3"></rect>
            </g>
        </g>
    </g>
</svg>