<svg xmlns="http://www.w3.org/2000/svg" width="18" height="18" viewBox="0 0 18 18">
    <g fill="none" fill-rule="evenodd">
        <circle cx="9" cy="9" r="9" fill="#1C8B84"/>
        <path fill="#D3D4EA" d="M13.145 3.527a.958.958 0 0 1 .793.192c.236.182.382.424.437.724.055.301-.01.58-.191.834l-5.66 8.258a1.126 1.126 0 0 1-.698.438.936.936 0 0 1-.78-.192c-.145-.11-.528-.496-1.148-1.162a96.69 96.69 0 0 1-1.75-1.928l-.847-.93C3.1 9.544 3 9.28 3 8.97c0-.31.11-.574.328-.793a1.002 1.002 0 0 1 1.504.054l2.707 2.926 4.922-7.191c.182-.237.41-.383.684-.438z"/>
    </g>
</svg>
