<svg xmlns="http://www.w3.org/2000/svg" width="14" height="15" viewBox="0 0 14 15">
    <g fill="#8083F7" fill-rule="nonzero">
        <path d="M12.298 3H4.702C3.763 3 3 3.764 3 4.703v8.594C3 14.236 3.763 15 4.702 15h7.596c.938 0 1.702-.764 1.702-1.703V4.703C14 3.764 13.236 3 12.298 3zm.986 10.296a.988.988 0 0 1-.986.987H4.702a.987.987 0 0 1-.986-.987V4.703c0-.544.443-.986.986-.986h7.596c.543 0 .986.442.986.986v8.593z"/>
        <path d="M1.703 11.283a.988.988 0 0 1-.987-.986V1.704c0-.544.443-.987.987-.987h7.595c.543 0 .986.443.986.987a.358.358 0 1 0 .716 0C11 .764 10.236 0 9.298 0H1.703C.763 0 0 .764 0 1.704v8.593C0 11.236.764 12 1.703 12a.358.358 0 0 0 0-.717z"/>
    </g>
</svg>
