<svg xmlns="http://www.w3.org/2000/svg" width="20" height="33" viewBox="0 0 20 33">
    <path fill="#878AFF" fill-rule="nonzero" d="M9.842 24.474c-2.665 0-4.242-1.337-4.717-4.006L0 21.697c1.036 4.245 3.716 6.587 8.055 6.996v3.639h3.313v-3.657c2.599-.257 4.59-1.092 5.964-2.518 1.38-1.433 2.068-3.203 2.068-5.346 0-1.395-.337-2.607-1-3.649a7.02 7.02 0 0 0-2.68-2.444c-1.12-.59-2.668-1.219-4.635-1.88-1.782-.621-2.962-1.12-3.507-1.53-.545-.416-.818-1.003-.818-1.77 0-.766.278-1.408.852-1.94.563-.533 1.313-.795 2.246-.795 1.868 0 3.242 1.191 4.135 3.568l4.57-1.73c-1.092-3.469-3.492-5.4-7.191-5.818V0H8.056v2.822C5.598 3.15 3.8 4.022 2.665 5.45 1.522 6.88.948 8.502.948 10.293c0 1.356.324 2.563.964 3.592A6.757 6.757 0 0 0 4.41 16.28c1.027.574 2.451 1.15 4.27 1.729 2.026.657 3.33 1.215 3.925 1.647.582.423.88 1.06.88 1.901 0 .801-.298 1.493-.88 2.068-.593.562-1.517.849-2.763.849z"/>
</svg>
