<svg xmlns="http://www.w3.org/2000/svg" width="19" height="19" viewBox="0 0 19 19">
    <path fill="#4B4FE8" fill-rule="nonzero" d="M18.986 14.676c0 .621-.51 1.131-1.132 1.131H3.93l1.244 1.242c.377.377.466.976.178 1.442-.4.621-1.244.666-1.732.178L.289 15.34a.924.924 0 0 1 0-1.33l3.308-3.306a1.131 1.131 0 0 1 1.732.178c.29.443.2 1.064-.177 1.442l-1.244 1.242h13.946c.644-.022 1.132.488 1.132 1.109zM18.72 3.629L15.41.324a1.131 1.131 0 0 0-1.731.177c-.289.444-.2 1.065.177 1.442L15.1 3.185H1.133C.51 3.185 0 3.695 0 4.317c0 .62.51 1.131 1.133 1.131h13.945L13.834 6.69a1.173 1.173 0 0 0-.177 1.442c.4.621 1.243.666 1.732.178l3.308-3.306c.4-.399.4-.998.023-1.375z"/>
</svg>
