<svg xmlns="http://www.w3.org/2000/svg" width="22" height="18" viewBox="0 0 22 18">
    <g fill="#6468FF" fill-rule="nonzero">
        <path d="M16.5 7.682H8.8v2.69h4.698c-.701 2.337-2.785 4.033-5.248 4.033-3.038 0-5.5-2.58-5.5-5.762 0-3.182 2.462-5.762 5.5-5.762 1.53 0 2.913.654 3.91 1.71l1.863-2.121C12.535.942 10.498 0 8.25 0 3.694 0 0 3.87 0 8.643c0 4.773 3.694 8.643 8.25 8.643 3.991 0 7.486-2.97 8.25-6.915V7.682zM22 7.936h-1.65v-1.65h-1.414v1.65h-1.65V9.35h1.65V11h1.414V9.35H22z"/>
    </g>
</svg>
