<svg xmlns="http://www.w3.org/2000/svg" width="8" height="11" viewBox="0 0 8 11">
    <path fill="#878AFF" fill-rule="evenodd" d="M6.563 3.86a.9.9 0 0 1 .656.28.9.9 0 0 1 .281.657v4.687a.9.9 0 0 1-.281.657.9.9 0 0 1-.657.28H.938a.9.9 0 0 1-.656-.28A.9.9 0 0 1 0 9.484V4.797a.9.9 0 0 1 .281-.656.9.9 0 0 1 .656-.282h.47v-.937c0-.64.23-1.192.69-1.652A2.255 2.255 0 0 1 3.75.578c.64 0 1.191.23 1.652.692.461.46.692 1.011.692 1.652v.937h.468zm-3.47 3.984a.9.9 0 0 0 .657.281.9.9 0 0 0 .656-.281.9.9 0 0 0 .282-.657.9.9 0 0 0-.282-.656.9.9 0 0 0-.656-.281.9.9 0 0 0-.656.281.9.9 0 0 0-.281.657.9.9 0 0 0 .28.656zm2.11-3.985v-.937c0-.406-.14-.75-.422-1.031a1.403 1.403 0 0 0-1.031-.422c-.406 0-.75.14-1.031.422a1.403 1.403 0 0 0-.422 1.03v.938h2.906z"/>
</svg>
