<svg xmlns="http://www.w3.org/2000/svg" xmlns:xlink="http://www.w3.org/1999/xlink" width="16" height="16" viewBox="0 0 16 16">
    <defs>
        <circle id="a" cx="7" cy="7" r="7"/>
    </defs>
    <g fill="none" fill-rule="evenodd" transform="translate(1 1)">
        <mask id="b" fill="#fff">
            <use xlink:href="#a"/>
        </mask>
        <use fill="#242784" stroke="#878AFF" xlink:href="#a"/>
        <g fill="#878AFF" fill-rule="nonzero" mask="url(#b)">
            <path d="M5.195 10.366h2.192a.448.448 0 1 0 0-.896H6.09V4.231h1.296a.448.448 0 1 0 0-.896H5.195v7.031z"/>
            <path d="M10.6 7.094a.439.439 0 0 0 .022-.04c.006-.012.013-.023.018-.035a.448.448 0 0 0 .016-.05c0-.01.007-.02.009-.032a.448.448 0 0 0 0-.168c0-.011-.007-.022-.009-.033a.448.448 0 0 0-.016-.049c0-.012-.01-.023-.018-.035a.44.44 0 0 0-.022-.04c-.008-.012-.017-.022-.026-.033-.009-.012-.013-.02-.021-.028l-1.43-1.546a.45.45 0 0 0-.657.614l.732.784H7.169a.448.448 0 1 0 0 .896h2.029l-.732.784a.448.448 0 1 0 .658.609l1.429-1.537c.008-.009.013-.018.021-.028.008-.01.018-.021.026-.033z"/>
        </g>
    </g>
</svg>
