<svg xmlns="http://www.w3.org/2000/svg" width="108" height="23" viewBox="0 0 108 23">
    <g fill="none" fill-rule="evenodd">
        <path fill="#FFF" d="M24.773 13.581h-4.655c.006.535.115 1.007.327 1.416.212.409.494.717.846.924.351.207.74.31 1.164.31.284 0 .544-.032.78-.098.235-.067.463-.17.684-.311.22-.141.424-.292.61-.454.186-.16.427-.38.724-.656.122-.103.296-.155.523-.155.244 0 .441.066.593.198.15.133.226.32.226.562 0 .213-.084.462-.253.747-.168.284-.422.558-.762.82-.34.262-.767.48-1.282.652-.514.172-1.105.259-1.774.259-1.528 0-2.717-.432-3.565-1.295-.848-.864-1.273-2.035-1.273-3.515 0-.696.105-1.343.314-1.938.21-.596.514-1.107.915-1.533a3.971 3.971 0 0 1 1.482-.98 5.365 5.365 0 0 1 1.953-.341c.93 0 1.727.194 2.393.583.665.388 1.164.89 1.495 1.506.331.616.497 1.244.497 1.883 0 .593-.172.977-.515 1.153-.343.175-.825.263-1.447.263zm-4.655-1.338h4.315c-.058-.806-.277-1.41-.658-1.81-.38-.4-.882-.6-1.504-.6-.592 0-1.079.203-1.46.61-.38.405-.611 1.005-.693 1.8zm13.435 4.576l-1.726-2.513-1.77 2.513c-.255.351-.472.602-.649.751-.177.15-.402.225-.675.225-.303 0-.56-.094-.772-.28-.212-.188-.318-.402-.318-.644 0-.248.163-.602.488-1.062l2.153-3.057-1.909-2.547c-.331-.42-.497-.786-.497-1.097 0-.242.1-.452.297-.63.197-.179.456-.268.776-.268.278 0 .51.078.693.233.183.156.396.4.64.734l1.543 2.09 1.5-2.09c.25-.345.466-.593.649-.742.183-.15.411-.225.684-.225.314 0 .574.088.78.263.207.176.31.388.31.635 0 .179-.042.35-.127.514a3.9 3.9 0 0 1-.387.583l-1.91 2.547 2.154 3.057c.337.478.505.837.505 1.08 0 .247-.104.46-.314.638-.209.179-.467.268-.775.268-.274 0-.505-.078-.693-.233-.19-.156-.406-.403-.65-.743zm12.119-1.943c0 .294-.089.608-.266.941-.177.334-.448.652-.81.955-.364.302-.822.545-1.374.73-.552.183-1.174.276-1.865.276-1.47 0-2.618-.425-3.444-1.274-.825-.85-1.237-1.988-1.237-3.415 0-.967.188-1.822.566-2.565a4.045 4.045 0 0 1 1.64-1.722c.714-.406 1.568-.61 2.562-.61.616 0 1.181.09 1.695.269.515.178.95.408 1.308.69.357.282.63.583.82.903.188.32.283.617.283.893a.938.938 0 0 1-.319.717c-.212.196-.469.294-.771.294a.783.783 0 0 1-.493-.151c-.13-.101-.277-.264-.44-.488-.29-.438-.594-.766-.91-.985-.317-.218-.72-.328-1.208-.328-.703 0-1.27.272-1.7.816-.43.544-.645 1.288-.645 2.232 0 .444.055.85.166 1.222.11.371.27.688.48.95.208.262.461.46.758.596.296.135.621.203.976.203.476 0 .885-.11 1.225-.328.34-.22.64-.553.902-1.002.145-.265.302-.472.47-.622a.899.899 0 0 1 .62-.224c.29 0 .531.11.723.328.192.219.288.452.288.7zm3.846-8.738v3.497c.302-.346.597-.619.884-.82.288-.202.606-.353.955-.454.349-.1.723-.15 1.124-.15.605 0 1.141.126 1.609.379.468.253.835.622 1.103 1.105.168.282.281.598.34.946.058.348.087.75.087 1.204v4.516c0 .472-.11.83-.327 1.071-.218.242-.507.363-.868.363-.784 0-1.176-.478-1.176-1.434v-3.98c0-.754-.114-1.334-.34-1.74-.227-.406-.657-.609-1.29-.609-.425 0-.807.12-1.147.358a2.16 2.16 0 0 0-.763.98c-.127.352-.191.976-.191 1.874v3.117c0 .467-.106.822-.319 1.067-.212.244-.507.367-.884.367-.785 0-1.177-.478-1.177-1.434V6.138c0-.478.103-.836.31-1.075.206-.24.495-.359.867-.359.377 0 .672.121.884.363.213.242.319.599.319 1.07zm14.358 10.327c-.575.443-1.131.776-1.669.997-.537.222-1.14.333-1.809.333-.61 0-1.146-.12-1.608-.359a2.638 2.638 0 0 1-1.068-.971 2.503 2.503 0 0 1-.375-1.33c0-.644.207-1.194.62-1.649.412-.455.979-.76 1.7-.915.15-.035.525-.113 1.124-.233.598-.121 1.111-.232 1.538-.333.427-.1.89-.223 1.39-.367-.028-.622-.155-1.078-.379-1.368-.223-.291-.687-.437-1.39-.437-.604 0-1.06.084-1.364.25a2.206 2.206 0 0 0-.785.752 7.987 7.987 0 0 1-.462.66c-.09.107-.283.16-.58.16a1.02 1.02 0 0 1-.692-.254.826.826 0 0 1-.292-.652c0-.415.148-.818.444-1.21.296-.39.758-.713 1.386-.966.628-.254 1.41-.38 2.345-.38 1.046 0 1.868.122 2.467.367.599.244 1.021.632 1.268 1.161.247.53.37 1.232.37 2.107a191.408 191.408 0 0 1-.017 2.694c0 .443.074.905.223 1.386.148.48.222.79.222.928 0 .242-.115.462-.344.66a1.16 1.16 0 0 1-.78.299c-.245 0-.486-.114-.724-.341-.238-.228-.491-.557-.759-.989zm-.156-3.41c-.35.126-.856.26-1.522.4-.665.142-1.126.245-1.381.312-.256.066-.5.195-.732.388-.233.193-.35.462-.35.808 0 .356.137.66.41.91.274.251.631.376 1.073.376.47 0 .905-.102 1.303-.306.398-.205.69-.468.876-.79.215-.357.323-.945.323-1.762v-.337zm6.8-3.541v.285c.42-.547.877-.948 1.374-1.205.496-.256 1.067-.384 1.713-.384.627 0 1.188.135 1.682.406.494.27.863.653 1.107 1.148.157.288.259.6.305.933.047.334.07.76.07 1.278v4.386c0 .472-.11.83-.327 1.071a1.09 1.09 0 0 1-.85.363c-.354 0-.642-.124-.863-.371-.22-.248-.331-.602-.331-1.063v-3.928c0-.778-.11-1.372-.327-1.784-.218-.411-.652-.617-1.303-.617-.425 0-.811.125-1.16.376a2.16 2.16 0 0 0-.767 1.032c-.116.35-.174 1.007-.174 1.968v2.953c0 .478-.112.837-.336 1.075-.223.24-.513.359-.867.359-.343 0-.625-.124-.846-.371-.22-.248-.33-.602-.33-1.063V9.55c0-.45.098-.785.295-1.006.198-.222.468-.333.811-.333.21 0 .398.049.567.147.168.098.303.245.405.44.102.196.153.435.153.717zm17.262.423v6.848c0 .782-.084 1.456-.253 2.02-.168.564-.438 1.03-.81 1.399-.372.368-.859.642-1.46.82-.602.179-1.35.268-2.245.268-.82 0-1.552-.114-2.197-.341-.645-.228-1.142-.521-1.49-.88-.349-.36-.523-.73-.523-1.11 0-.288.098-.523.296-.704a1.02 1.02 0 0 1 .715-.272c.349 0 .654.152.915.457.128.156.26.313.397.471.136.158.287.294.453.406.166.112.365.196.597.25.233.055.5.082.802.082.616 0 1.094-.085 1.434-.254.34-.17.578-.408.715-.713.136-.305.216-.632.24-.98.023-.348.04-.908.052-1.68-.366.507-.789.893-1.268 1.158-.48.265-1.05.397-1.713.397-.796 0-1.492-.202-2.088-.604-.596-.403-1.053-.968-1.373-1.693-.32-.725-.48-1.563-.48-2.513 0-.708.098-1.347.293-1.917.194-.57.472-1.05.832-1.442.36-.391.776-.686 1.247-.885.47-.198.988-.298 1.551-.298.674 0 1.258.128 1.752.385.494.256.953.657 1.378 1.204v-.32c0-.408.101-.725.305-.95a1.01 1.01 0 0 1 .784-.336c.46 0 .765.148.916.445.15.296.226.724.226 1.282zm-6.895 2.988c0 .955.21 1.678.632 2.167.421.49.966.734 1.634.734.396 0 .769-.105 1.12-.315.352-.21.638-.527.86-.95.22-.423.33-.937.33-1.541 0-.962-.213-1.71-.64-2.245-.427-.536-.99-.803-1.687-.803-.68 0-1.225.256-1.634.768-.41.512-.615 1.24-.615 2.185zm15.387.656H91.62c.005.535.114 1.007.326 1.416.213.409.494.717.846.924.352.207.74.31 1.164.31.284 0 .545-.032.78-.098.235-.067.463-.17.684-.311.221-.141.424-.292.61-.454.186-.16.428-.38.724-.656.122-.103.296-.155.523-.155.244 0 .442.066.593.198.15.133.226.32.226.562 0 .213-.084.462-.252.747-.169.284-.423.558-.763.82-.34.262-.767.48-1.282.652-.514.172-1.105.259-1.774.259-1.528 0-2.716-.432-3.565-1.295-.848-.864-1.273-2.035-1.273-3.515 0-.696.105-1.343.314-1.938.21-.596.515-1.107.916-1.533a3.971 3.971 0 0 1 1.481-.98 5.365 5.365 0 0 1 1.953-.341c.93 0 1.728.194 2.393.583.665.388 1.164.89 1.495 1.506.331.616.497 1.244.497 1.883 0 .593-.172.977-.514 1.153-.343.175-.826.263-1.448.263zm-4.654-1.338h4.315c-.059-.806-.278-1.41-.659-1.81-.38-.4-.882-.6-1.503-.6-.593 0-1.08.203-1.46.61-.381.405-.612 1.005-.693 1.8zm10.872 2.15v1.968c0 .478-.114.837-.34 1.075a1.138 1.138 0 0 1-.863.359c-.343 0-.625-.121-.846-.363-.22-.242-.331-.599-.331-1.07V9.798c0-1.06.386-1.589 1.16-1.589.394 0 .68.124.853.371.175.248.27.613.288 1.097.285-.484.577-.85.876-1.097.3-.247.699-.37 1.199-.37.5 0 .985.123 1.455.37.471.248.707.576.707.985 0 .288-.1.525-.301.712-.2.187-.417.28-.65.28-.087 0-.297-.052-.632-.159a2.964 2.964 0 0 0-.884-.16c-.35 0-.634.091-.855.272-.22.182-.392.45-.514.808a5.589 5.589 0 0 0-.253 1.273c-.046.493-.07 1.093-.07 1.8z"/>
        <g fill-rule="nonzero">
            <path fill="#8286FF" d="M2.333 15.368c.354 0 .693-.145.943-.404.25-.26.39-.611.39-.978V6.441a.251.251 0 0 1 .244-.252H7.6v1.036c0 .09.01.18.027.27 0 .041.023.079.033.117.012.048.026.095.043.142.02.045.042.088.067.131.02.035.033.073.053.104.098.152.224.282.37.383.034.024.07.038.104.059.04.025.083.048.126.069.045.018.09.033.137.045.037 0 .073.028.113.034.173.037.35.037.524 0 .04 0 .076-.024.113-.034a.765.765 0 0 0 .263-.114c.034-.02.07-.035.104-.059.073-.05.14-.108.203-.173l2.333-2.418c.25-.26.391-.611.391-.978s-.14-.718-.39-.978L9.88 1.407a1.344 1.344 0 0 0-.203-.173c-.034-.024-.07-.038-.104-.059a1.295 1.295 0 0 0-.126-.069 1.277 1.277 0 0 0-.137-.045c-.037 0-.073-.027-.113-.034a1.287 1.287 0 0 0-.524 0c-.04 0-.073.024-.113.034-.047.01-.094.02-.14.035-.044.02-.086.044-.127.07-.033.02-.07.034-.103.058a1.36 1.36 0 0 0-.367.39c-.02.035-.036.07-.053.104a1.4 1.4 0 0 0-.067.131 1.398 1.398 0 0 0-.043.142c0 .038-.027.076-.033.117a1.43 1.43 0 0 0-.027.27v1.036H3.91C2.304 3.416 1.002 4.765 1 6.43v7.556c0 .367.14.718.39.978.25.259.59.404.943.404z"/>
            <path fill="#FFF" d="M14.172 6.747c-.736 0-1.333.62-1.333 1.384v7.552a.251.251 0 0 1-.244.253h-3.69v-1.038c0-.09-.009-.18-.026-.27 0-.041-.024-.079-.034-.117a.83.83 0 0 0-.11-.273c-.02-.035-.033-.073-.053-.104a1.362 1.362 0 0 0-.37-.398c-.033-.024-.07-.038-.103-.058a.765.765 0 0 0-.264-.115c-.036 0-.073-.027-.113-.034a1.286 1.286 0 0 0-.523 0c-.04 0-.074.024-.114.034a.765.765 0 0 0-.263.115c-.033.02-.07.034-.103.058-.073.05-.141.109-.204.173l-2.333 2.42a1.41 1.41 0 0 0-.39.98c0 .367.14.719.39.978l2.333 2.42c.063.065.13.123.204.174.033.024.07.038.103.059.041.025.083.048.127.069.044.017.09.032.136.045.037 0 .074.027.114.034.172.037.35.037.523 0 .04 0 .077-.024.113-.034a.765.765 0 0 0 .264-.114c.033-.021.07-.035.103-.06a1.36 1.36 0 0 0 .37-.383c.02-.035.037-.07.053-.104a.83.83 0 0 0 .11-.273c0-.038.027-.076.034-.118.017-.088.026-.179.026-.27v-1.037h3.69c1.607-.002 2.908-1.352 2.91-3.019V8.131c0-.764-.597-1.384-1.333-1.384z"/>
        </g>
    </g>
</svg>
