<svg xmlns="http://www.w3.org/2000/svg" width="25" height="28" viewBox="0 0 25 28">
    <path fill="#878AFF" fill-rule="evenodd" d="M23.32 26.901a.144.144 0 0 1-.14.103H1.176a.145.145 0 0 1-.14-.18l2.096-8.393-2.586.987a.146.146 0 0 1-.196-.135v-3.264c0-.06.038-.115.095-.136l3.655-1.33L7.69.18a.145.145 0 0 1 .14-.11h8.545a.145.145 0 0 1 .14.183l-2.97 10.858 3.234-1.177a.144.144 0 0 1 .194.136v2.975c0 .06-.037.113-.093.135l-4.354 1.663-1.935 7.08h14.027c.046 0 .089.022.117.059a.143.143 0 0 1 .022.128l-1.437 4.791z"/>
</svg>
