<svg xmlns="http://www.w3.org/2000/svg" width="20" height="22" viewBox="0 0 20 22">
    <path fill="#4346B4" fill-rule="evenodd" d="M17.959 20.977a.113.113 0 0 1-.109.081H.646a.113.113 0 0 1-.11-.14l1.639-6.563-2.021.772A.114.114 0 0 1 0 15.021V12.47c0-.048.03-.09.074-.107l2.858-1.04L5.738.086A.113.113 0 0 1 5.848 0h6.68a.113.113 0 0 1 .11.143l-2.321 8.49 2.527-.92a.113.113 0 0 1 .152.106v2.325c0 .047-.029.089-.072.106l-3.405 1.3-1.512 5.535h10.967c.035 0 .069.018.09.046a.112.112 0 0 1 .018.1l-1.123 3.746z"/>
</svg>
