<svg xmlns="http://www.w3.org/2000/svg" xmlns:xlink="http://www.w3.org/1999/xlink" width="48" height="48" viewBox="0 0 48 48">
    <defs>
        <circle id="a" cx="24" cy="24" r="24"/>
    </defs>
    <g fill="none" fill-rule="evenodd">
        <mask id="b" fill="#fff">
            <use xlink:href="#a"/>
        </mask>
        <use fill="#32359B" xlink:href="#a"/>
        <path fill="#4B4FE8" fill-rule="nonzero" d="M23.828 31.952c-2.39 0-3.805-1.199-4.23-3.593L15 29.46c.93 3.808 3.333 5.909 7.225 6.276V39h2.972v-3.28c2.33-.23 4.116-.979 5.349-2.258 1.238-1.285 1.855-2.873 1.855-4.795 0-1.252-.302-2.339-.898-3.273A6.297 6.297 0 0 0 29.1 23.2c-1.003-.53-2.392-1.093-4.156-1.686-1.599-.557-2.657-1.005-3.146-1.371-.489-.374-.734-.9-.734-1.59 0-.686.25-1.262.765-1.74.504-.477 1.177-.712 2.014-.712 1.676 0 2.908 1.068 3.71 3.2l4.098-1.552c-.979-3.11-3.132-4.843-6.45-5.218V10h-2.974v2.531c-2.205.294-3.818 1.077-4.836 2.356-1.024 1.285-1.54 2.739-1.54 4.345 0 1.217.29 2.3.865 3.222a6.06 6.06 0 0 0 2.24 2.148c.922.515 2.2 1.032 3.831 1.551 1.817.59 2.986 1.09 3.52 1.478.522.38.79.95.79 1.705 0 .718-.268 1.34-.79 1.855-.532.504-1.36.76-2.478.76z" mask="url(#b)"/>
    </g>
</svg>
