<svg xmlns="http://www.w3.org/2000/svg" xmlns:xlink="http://www.w3.org/1999/xlink" width="48" height="48" viewBox="0 0 48 48">
    <defs>
        <circle id="a" cx="24" cy="24" r="24"/>
    </defs>
    <g fill="none" fill-rule="evenodd">
        <mask id="b" fill="#fff">
            <use xlink:href="#a"/>
        </mask>
        <use fill="#32359B" xlink:href="#a"/>
        <path fill="#4B4FE8" d="M35.315 34.653c3.044 1.106 4.715 2.512 5.013 4.217.013.076.674 2 .672 3.972-.003 2.842-.672 6.044-.672 6.158H9.769c0-.108-.792-3.42-.768-6.158.018-2.17.852-3.893.866-3.976.3-1.703 1.97-3.108 5.012-4.213.51-.184 1.274-.353 2.292-.506 1.019-.154 1.624-.26 1.815-.322 1.082-.307 1.719-.583 1.91-.828l.095-3.772c-.382-.613-.668-1.165-.86-1.655l-.668-2.944c-.446 0-.732-.368-.86-1.104a9.525 9.525 0 0 0-.334-1.288c-.159-.49-.238-.889-.238-1.195 0-.246.032-.445.095-.598a.589.589 0 0 1 .287-.322c-.16-.798-.319-2.085-.382-3.864-.064-1.656.54-3.112 1.814-4.37C21.118 10.63 22.87 10 25.097 10c2.229 0 3.98.629 5.253 1.886 1.273 1.257 1.878 2.713 1.814 4.37l-.477 3.863c.318.061.477.368.477.92 0 .122-.191.98-.573 2.575-.064.307-.16.552-.286.736-.128.184-.255.307-.382.368h-.191c-.255 1.41-.478 2.361-.669 2.852l-.86 1.655c-.127 2.27-.095 3.527.096 3.772.191.245.828.521 1.91.828.191.061.796.168 1.814.322 1.02.153 1.783.322 2.292.506z" mask="url(#b)"/>
    </g>
</svg>
