<svg xmlns="http://www.w3.org/2000/svg" xmlns:xlink="http://www.w3.org/1999/xlink" width="48" height="48" viewBox="0 0 48 48">
    <defs>
        <circle id="a" cx="24" cy="24" r="24"/>
    </defs>
    <g fill="none" fill-rule="evenodd">
        <mask id="b" fill="#fff">
            <use xlink:href="#a"/>
        </mask>
        <use fill="#32359B" xlink:href="#a"/>
        <g fill="#4B4FE8" fill-rule="nonzero" mask="url(#b)">
            <path d="M29.682 28.9v1.2h3.454c.472 0 .864.408.864.9 0 .504-.392.9-.864.9h-3.454v1.2c0 .504-.392.9-.864.9s-.864-.396-.864-.9v-1.2h-12.09c-.472 0-.864-.396-.864-.9 0-.492.392-.9.864-.9h12.09v-1.2c0-.492.392-.9.864-.9s.864.408.864.9zM21.045 22.9v1.2h12.091c.472 0 .864.408.864.9 0 .504-.392.9-.864.9h-12.09v1.2c0 .504-.392.9-.864.9s-.864-.396-.864-.9v-1.2h-3.454c-.472 0-.864-.396-.864-.9 0-.492.392-.9.864-.9h3.454v-1.2c0-.492.392-.9.864-.9s.863.408.863.9zM25.364 15.9v1.2h7.772c.472 0 .864.408.864.9 0 .504-.392.9-.864.9h-7.772v1.2c0 .504-.392.9-.864.9s-.864-.396-.864-.9v-1.2h-7.772c-.472 0-.864-.396-.864-.9 0-.492.392-.9.864-.9h7.772v-1.2c0-.492.392-.9.864-.9s.864.408.864.9z"/>
        </g>
    </g>
</svg>
