<svg xmlns="http://www.w3.org/2000/svg" width="22" height="27" viewBox="0 0 22 27">
    <path fill="#4346B4" fill-rule="nonzero" d="M7.385 8.231l1.661 3.732 3.015-1.342a1.94 1.94 0 0 0 1.03-1.116 2.07 2.07 0 0 0-.054-1.554 2.07 2.07 0 0 0-1.118-1.08 1.938 1.938 0 0 0-1.52.018L7.386 8.23zm9.86 11.534l1.628 3.659-2.62 1.166-1.629-3.658-.904.402 1.629 3.659-2.62 1.166-1.625-3.65-3.778 1.682-.713-2.927 1.732-.77c.625-.28.9-1.033.613-1.68l-3.682-8.268C4.99 9.9 4.244 9.6 3.62 9.878l-2.255 1.004L.158 8.175l3.809-1.696-1.61-3.615 2.62-1.166 1.62 3.64.905-.403-1.62-3.64L8.502.128l1.666 3.742a4.805 4.805 0 0 1 2.75.262 5.075 5.075 0 0 1 2.739 2.653c.374.84.504 1.73.42 2.58.603.017 1.2.144 1.759.37a5.301 5.301 0 0 1 2.86 2.77 5.3 5.3 0 0 1 .145 3.979A4.965 4.965 0 0 1 18.2 19.34l-.955.425zm-6.992-5.091l1.843 4.14 4.898-2.182c.55-.244.946-.7 1.142-1.238a2.296 2.296 0 0 0-.06-1.723 2.296 2.296 0 0 0-1.24-1.198 2.15 2.15 0 0 0-1.685.02l-4.898 2.181z"/>
</svg>
