<svg xmlns="http://www.w3.org/2000/svg" width="20" height="21" viewBox="0 0 20 21">
    <g fill="#6468FF" fill-rule="nonzero">
        <path d="M4.589 6.5l.162-.228c.034-.047.073-.092.108-.139l.006.013.188-.225c.246-.296.526-.582.819-.829l.225-.19-.011-.005c.04-.03.08-.065.12-.096l.223-.163-3.492-1.687.195.418L4.589 6.5zM3.605 11.122c-.008-.054-.012-.11-.02-.164l.016.005-.026-.292a6.62 6.62 0 0 1 0-1.168l.027-.294-.016.006c.007-.055.01-.11.02-.164l.043-.274-.259.092L0 10.087l3.648 1.309-.043-.274zM9.131 3.623l-.005.017.29-.027c.191-.017.383-.027.577-.027.194 0 .386.01.578.027l.29.027-.006-.017c.054.008.11.011.163.02l.27.044L9.993 0 9.84.437l-1.143 3.25.271-.044c.054-.009.11-.012.163-.02zM13.906 4.902h-.002l.053.045c.11.086.209.183.312.276.189.17.368.35.536.54.089.1.18.197.261.302l.068.083.001-.003c.033.043.068.084.1.128l.16.226 1.671-3.55-.415.202-3.094 1.489.223.162c.043.03.083.067.126.1zM16.337 11.41l3.65-1.31-3.65-1.308.044.273c.008.054.012.11.02.164l-.017-.006.027.294c.016.194.026.388.026.584 0 .196-.01.39-.026.583l-.027.295.016-.006c-.007.054-.011.11-.02.164l-.043.273zM10.855 16.578l.006-.016-.29.027a6.693 6.693 0 0 1-.578.026c-.194 0-.386-.01-.578-.026l-.29-.027.006.016c-.054-.008-.11-.012-.163-.02l-.27-.043.091.26 1.203 3.427 1.296-3.688-.27.044c-.054.008-.109.012-.163.02zM15.235 13.928c-.03.043-.064.081-.095.123l-.005-.011-.188.227c-.202.245-.43.48-.664.696-.12.108-.236.223-.364.322-.043.033-.083.069-.126.101l-.221.162 3.496 1.691-1.672-3.534-.161.223zM6.068 15.29l.012-.007-.221-.188a6.592 6.592 0 0 1-.806-.814l-.187-.225-.006.013c-.036-.048-.075-.092-.11-.14l-.16-.225-.118.25-1.535 3.28 3.494-1.67-.225-.164c-.047-.035-.092-.074-.138-.11zM14.59 13.499a5.788 5.788 0 0 0 1.102-3.4c0-1.77-.807-3.52-2.328-4.647a5.629 5.629 0 0 0-3.363-1.115A5.664 5.664 0 0 0 5.405 6.69a5.765 5.765 0 0 0-1.103 3.4c0 1.77.806 3.52 2.328 4.647a5.633 5.633 0 0 0 3.362 1.115 5.669 5.669 0 0 0 4.598-2.353z"/>
    </g>
</svg>
